HIERARCHY
ROOT Hips
{
    OFFSET 0.000000 0.000000 0.000000
    CHANNELS 6 Xposition Yposition Zposition Zrotation Xrotation Yrotation
    JOINT Spine
    {
        OFFSET -0.000000 7.246840 0.000000
        CHANNELS 3 Zrotation Xrotation Yrotation
        JOINT Spine1
        {
            OFFSET -0.000000 20.289354 0.000000
            CHANNELS 3 Zrotation Xrotation Yrotation
            JOINT Neck
            {
                OFFSET -0.000000 20.206032 1.836912
                CHANNELS 3 Zrotation Xrotation Yrotation
                JOINT Head
                {
                    OFFSET -0.000000 12.372654 -1.767522
                    CHANNELS 3 Zrotation Xrotation Yrotation
                    End Site
                    {
                        OFFSET -0.000000 22.094025 0.000000
                    }
                }
            }
            JOINT LeftShoulder
            {
                OFFSET 3.465871 17.201674 -0.568930
                CHANNELS 3 Zrotation Xrotation Yrotation
                JOINT LeftArm
                {
                    OFFSET 14.070313 0.000000 0.000000
                    CHANNELS 3 Zrotation Xrotation Yrotation
                    JOINT LeftForeArm
                    {
                        OFFSET 26.549477 0.000000 0.000000
                        CHANNELS 3 Zrotation Xrotation Yrotation
                        JOINT LeftHand
                        {
                            OFFSET 18.880413 0.000000 0.000000
                            CHANNELS 3 Zrotation Xrotation Yrotation
                            End Site
                            {
                                OFFSET 13.256415 0.000000 0.000000
                            }
                        }
                    }
                }
            }
            JOINT RightShoulder
            {
                OFFSET -3.526370 17.201674 -0.568930
                CHANNELS 3 Zrotation Xrotation Yrotation
                JOINT RightArm
                {
                    OFFSET -14.070313 0.000000 0.000000
                    CHANNELS 3 Zrotation Xrotation Yrotation
                    JOINT RightForeArm
                    {
                        OFFSET -26.549477 0.000000 0.000000
                        CHANNELS 3 Zrotation Xrotation Yrotation
                        JOINT RightHand
                        {
                            OFFSET -18.880413 0.000000 0.000000
                            CHANNELS 3 Zrotation Xrotation Yrotation
                            End Site
                            {
                                OFFSET -13.256415 0.000000 0.000000
                            }
                        }
                    }
                }
            }
        }
    }
    JOINT LeftUpLeg
    {
        OFFSET 8.837609 0.000000 0.000000
        CHANNELS 3 Zrotation Xrotation Yrotation
        JOINT LeftLeg
        {
            OFFSET -0.000000 -41.345005 0.000000
            CHANNELS 3 Zrotation Xrotation Yrotation
            JOINT LeftFoot
            {
                OFFSET -0.000000 -35.500874 0.000000
                CHANNELS 3 Zrotation Xrotation Yrotation
                JOINT LeftToeBase
                {
                    OFFSET -0.000000 -5.744446 13.256415
                    CHANNELS 3 Zrotation Xrotation Yrotation
                    End Site
                    {
                        OFFSET -0.000000 0.000000 3.535044
                    }
                }
            }
        }
    }
    JOINT RightUpLeg
    {
        OFFSET -8.837609 0.000000 0.000000
        CHANNELS 3 Zrotation Xrotation Yrotation
        JOINT RightLeg
        {
            OFFSET -0.000000 -41.345005 0.000000
            CHANNELS 3 Zrotation Xrotation Yrotation
            JOINT RightFoot
            {
                OFFSET -0.000000 -35.500874 0.000000
                CHANNELS 3 Zrotation Xrotation Yrotation
                JOINT RightToeBase
                {
                    OFFSET -0.000000 -5.744446 13.256415
                    CHANNELS 3 Zrotation Xrotation Yrotation
                    End Site
                    {
                        OFFSET -0.000000 0.000000 3.535044
                    }
                }
            }
        }
    }
}
MOTION
Frames:    4
Frame Time:    0.010000
1.480028    82.342552    -10.322141    2.416450    2.081286    0.548586    -5.870941    -14.648655    -1.407126    4.029542    4.342325    -0.804681    3.912836    28.905565    -2.768443    -1.135257    -7.051074    -2.624635    19.572079    0.824530    6.869857    -32.604061    12.809100    -9.693444    6.332499    -11.381308    -12.520325    -29.893932    -11.105804    1.552465    -14.814404    3.718279    10.627883    23.298706    5.775701    8.449727    -4.786439    -10.957013    5.235747    7.459732    -9.843586    13.936860    -1.817296    8.059067    -0.835283    -2.445054    -9.300190    -6.613859    3.993593    0.895953    -2.470677    -0.976770    -2.316839    1.386887    -5.606817    5.321787    -2.082802    7.214081    -4.885779    3.779998    1.289717    -4.330595    -6.347322    -0.978289    -0.994055    1.773394    
1.488745    82.341217    -10.307798    2.415731    2.088116    0.521680    -5.880187    -14.654095    -1.403705    4.040487    4.334177    -0.799898    3.927279    28.932281    -2.764469    -1.161062    -7.111865    -2.623431    19.567593    0.859411    6.902442    -32.613258    12.811597    -9.732882    6.334041    -11.392054    -12.435122    -29.889097    -11.116438    1.535018    -14.842058    3.700299    10.630842    23.297338    5.794175    8.422784    -4.863705    -10.819941    5.188204    7.772913    -9.667229    13.927973    -1.821235    8.066913    -0.833517    -2.466367    -9.295894    -6.550150    4.041451    0.875859    -2.525072    -0.983154    -2.312030    1.395909    -5.616414    5.335028    -2.085688    7.177261    -4.901392    3.869621    1.324516    -4.330246    -6.410330    -1.035537    -0.752617    1.872189    
1.496663    82.340263    -10.293197    2.408699    2.090107    0.488635    -5.886714    -14.661460    -1.400455    4.073266    4.337435    -0.796899    3.875801    28.937983    -2.749883    -1.124703    -7.144212    -2.607372    19.531765    0.854731    6.926577    -32.652447    12.634314    -9.762325    6.359280    -11.290324    -12.294298    -29.958593    -11.015706    1.516209    -14.905820    3.671726    10.646517    23.329243    5.804689    8.395376    -4.784735    -10.951505    5.210735    7.460722    -9.842105    13.889801    -1.821397    8.080317    -0.824037    -2.452245    -9.310109    -6.595639    3.995803    0.884530    -2.453684    -0.980023    -2.304938    1.391404    -5.623759    5.352519    -2.050299    7.198105    -4.936653    3.849355    1.324822    -4.319867    -6.390066    -0.989081    -0.946726    1.792023    
1.504390    82.338890    -10.279610    2.402144    2.094279    0.460993    -5.912436    -14.666212    -1.400358    4.124506    4.333949    -0.795051    3.849458    28.937387    -2.737885    -1.112657    -7.159579    -2.595916    19.498697    0.837804    6.932162    -32.652470    12.684331    -9.740998    6.371986    -11.317211    -12.225415    -30.026762    -11.038669    1.488219    -14.953681    3.680527    10.650846    23.316765    5.854606    8.368364    -4.779768    -11.084426    5.230508    7.437530    -9.978032    13.884879    -1.821573    8.088597    -0.790884    -2.453071    -9.309574    -6.611643    4.000895    0.865852    -2.445350    -0.972029    -2.302103    1.380029    -5.631538    5.365023    -2.028639    7.217295    -4.966880    3.841451    1.317710    -4.296375    -6.376055    -0.992086    -0.962550    1.797778    
